<?xml version="1.0" standalone="no"?>
<!DOCTYPE svg PUBLIC "-//W3C//DTD SVG 20010904//EN"
 "http://www.w3.org/TR/2001/REC-SVG-20010904/DTD/svg10.dtd">
<svg version="1.0" xmlns="http://www.w3.org/2000/svg"
 width="2732.000000pt" height="2732.000000pt" viewBox="0 0 2732.000000 2732.000000"
 preserveAspectRatio="xMidYMid meet">
<metadata>
Created by potrace 1.14, written by Peter Selinger 2001-2017
</metadata>
<g transform="translate(0.000000,2732.000000) scale(0.100000,-0.100000)"
fill="#000000" stroke="none">
<path d="M13387 27313 c-1 0 -85 -4 -187 -7 -288 -10 -436 -18 -710 -41 -36
-3 -85 -8 -110 -10 -25 -3 -70 -7 -100 -9 -30 -3 -71 -7 -90 -10 -19 -3 -62
-8 -95 -11 -104 -11 -176 -20 -245 -30 -14 -2 -77 -11 -140 -19 -63 -9 -124
-18 -135 -20 -21 -4 -75 -12 -139 -22 -21 -3 -48 -8 -60 -10 -25 -5 -128 -23
-171 -30 -16 -3 -77 -14 -134 -25 -57 -12 -116 -23 -130 -26 -14 -2 -46 -9
-71 -14 -25 -6 -56 -13 -70 -15 -14 -3 -45 -10 -70 -15 -25 -6 -56 -13 -70
-15 -14 -3 -43 -10 -65 -15 -22 -5 -50 -12 -62 -14 -222 -49 -702 -182 -1013
-281 -266 -85 -381 -125 -715 -249 -71 -26 -334 -131 -385 -153 -19 -8 -53
-22 -75 -32 -22 -10 -105 -46 -185 -80 -80 -35 -183 -81 -230 -103 -85 -39
-632 -310 -660 -327 -8 -5 -58 -33 -110 -61 -89 -48 -120 -66 -230 -127 -126
-71 -226 -129 -270 -157 -19 -12 -96 -59 -170 -105 -290 -177 -669 -435 -967
-656 -128 -95 -189 -141 -323 -247 -122 -96 -367 -298 -414 -342 -6 -5 -61
-53 -121 -105 -60 -52 -117 -102 -126 -110 -8 -8 -62 -58 -119 -110 -382 -351
-766 -748 -1136 -1175 -222 -257 -610 -756 -774 -995 -8 -12 -34 -48 -57 -80
-178 -247 -522 -797 -728 -1165 -158 -281 -366 -695 -512 -1020 -57 -125 -82
-183 -84 -193 -1 -4 -10 -24 -20 -44 -10 -20 -53 -121 -94 -225 -42 -103 -80
-197 -84 -208 -87 -206 -258 -713 -384 -1135 -55 -181 -153 -563 -202 -785
-15 -66 -28 -127 -30 -135 -2 -8 -13 -62 -25 -120 -12 -58 -23 -114 -26 -125
-2 -11 -7 -36 -10 -55 -3 -19 -7 -42 -9 -50 -2 -8 -7 -31 -10 -50 -3 -19 -10
-57 -15 -85 -6 -27 -12 -63 -14 -80 -2 -16 -9 -58 -15 -92 -23 -131 -31 -179
-36 -218 -3 -22 -7 -56 -10 -75 -2 -19 -7 -55 -10 -80 -3 -25 -7 -56 -10 -70
-3 -14 -7 -45 -10 -70 -3 -25 -7 -61 -10 -80 -8 -72 -15 -137 -20 -190 -3 -30
-7 -64 -9 -75 -2 -11 -7 -64 -11 -118 -3 -54 -8 -105 -9 -115 -2 -9 -7 -64
-11 -122 -4 -58 -8 -125 -10 -150 -33 -462 -33 -1293 0 -1735 3 -33 7 -96 10
-140 3 -44 7 -102 10 -130 2 -27 7 -81 10 -120 3 -38 8 -86 11 -105 2 -19 6
-62 9 -95 6 -65 14 -135 20 -175 2 -14 6 -50 9 -80 4 -30 8 -64 10 -75 2 -11
7 -49 12 -85 4 -36 8 -67 9 -70 1 -3 5 -32 9 -65 4 -32 10 -68 12 -80 2 -11 7
-40 10 -65 3 -25 7 -52 9 -60 2 -8 7 -31 10 -50 3 -19 7 -46 10 -60 3 -14 7
-41 10 -60 13 -80 78 -406 111 -559 41 -187 38 -175 59 -261 20 -77 24 -94 29
-117 14 -62 87 -335 96 -359 6 -16 11 -29 10 -29 -6 0 65 -240 147 -495 147
-462 384 -1071 570 -1470 20 -41 49 -104 65 -140 119 -260 381 -760 541 -1030
27 -47 61 -105 75 -130 13 -25 31 -52 38 -61 8 -8 14 -18 14 -22 0 -19 435
-689 452 -695 4 -2 8 -7 8 -12 0 -20 412 -579 541 -735 10 -11 59 -72 110
-135 52 -63 103 -126 115 -140 12 -14 66 -77 120 -140 54 -63 103 -120 109
-126 5 -6 44 -49 85 -95 162 -181 374 -402 585 -610 162 -159 189 -185 333
-317 53 -48 108 -98 123 -112 39 -36 71 -64 194 -170 61 -52 112 -97 115 -100
3 -3 28 -23 55 -45 28 -22 57 -46 65 -54 38 -37 428 -341 545 -426 31 -22 61
-45 68 -51 7 -5 55 -40 107 -78 52 -37 102 -72 111 -79 32 -25 80 -58 269
-184 514 -343 1014 -631 1577 -909 139 -68 255 -124 257 -124 2 0 48 -21 103
-46 245 -115 689 -296 978 -399 88 -31 169 -61 180 -65 11 -5 112 -39 225 -75
113 -37 219 -71 235 -76 17 -6 84 -26 150 -45 66 -18 143 -41 170 -49 132 -38
561 -148 666 -171 13 -2 42 -8 64 -13 161 -34 335 -70 360 -74 17 -3 77 -14
135 -26 58 -11 121 -22 140 -25 19 -3 73 -12 120 -20 47 -8 103 -17 125 -20
22 -4 51 -8 65 -11 14 -2 45 -7 70 -10 25 -3 54 -7 65 -9 11 -2 45 -7 76 -10
31 -4 65 -8 76 -10 11 -3 46 -7 79 -10 54 -6 101 -11 179 -21 17 -2 64 -7 105
-10 41 -4 86 -8 100 -11 14 -2 70 -6 125 -10 54 -3 107 -7 116 -9 10 -2 73 -7
141 -10 68 -4 143 -8 168 -10 100 -9 491 -18 740 -18 357 0 790 16 1040 38 25
2 79 6 120 10 41 3 91 8 110 10 19 2 69 7 110 10 41 4 86 8 100 10 25 4 71 9
170 20 30 3 66 8 80 10 14 2 50 7 80 10 30 3 62 8 70 10 8 2 40 7 70 10 66 8
110 14 130 20 8 2 39 7 69 10 30 3 57 8 60 9 3 2 29 7 56 10 28 4 84 13 125
21 41 8 89 17 105 20 17 2 41 7 55 10 14 3 41 8 60 11 19 3 73 14 120 24 47
10 99 21 115 24 17 3 41 8 55 11 14 3 36 8 50 11 28 5 163 38 350 84 69 17
132 33 140 35 8 1 42 10 75 19 33 9 67 18 75 21 32 8 129 35 215 60 50 14 95
27 100 28 6 2 15 5 20 8 6 4 24 9 40 13 119 27 766 250 990 341 17 7 57 22 90
35 33 13 152 62 265 110 188 80 281 121 505 225 97 45 536 264 550 275 6 4 48
27 95 52 243 129 471 262 811 472 85 53 458 301 539 359 36 25 92 65 125 89
60 42 316 232 345 255 8 6 83 64 165 129 217 170 641 528 726 613 9 9 65 61
125 116 196 180 610 599 806 816 13 14 46 50 73 81 54 60 54 60 198 228 54 63
109 126 121 140 96 109 493 624 638 830 60 84 320 470 390 580 53 82 275 447
315 520 242 432 336 614 516 990 152 320 352 797 461 1105 26 72 51 139 56
150 11 25 159 477 199 610 40 133 92 315 96 334 2 9 14 57 28 106 31 116 50
190 87 350 17 72 33 141 37 155 3 14 8 34 9 45 2 11 11 49 19 85 8 36 17 76
19 90 2 14 7 36 10 50 3 14 8 37 10 53 3 15 7 35 10 45 3 9 7 33 10 52 3 19 8
46 11 60 2 14 7 36 10 50 2 14 7 41 10 60 4 19 15 85 25 145 20 114 25 147 40
255 5 36 12 81 15 100 7 50 15 108 21 160 2 25 7 56 9 70 2 14 7 50 10 80 3
30 8 75 11 100 2 25 7 68 9 95 3 28 7 68 10 90 2 22 7 78 11 125 3 47 7 101 9
120 2 19 7 82 10 140 4 58 8 123 10 145 10 103 19 503 19 815 -1 380 -9 637
-29 915 -3 33 -7 96 -10 140 -6 76 -8 98 -20 220 -3 28 -7 75 -10 105 -2 30
-7 71 -9 90 -2 19 -7 62 -11 95 -3 33 -8 74 -10 90 -6 38 -12 86 -20 150 -4
28 -8 61 -10 74 -2 13 -7 45 -10 70 -4 25 -13 84 -21 131 -7 47 -16 103 -19
125 -25 169 -106 583 -161 815 -19 85 -40 173 -45 195 -9 41 -26 109 -74 290
-161 611 -450 1435 -684 1947 -11 26 -21 49 -21 52 0 2 -20 47 -44 98 -24 51
-63 136 -87 188 -72 156 -262 528 -360 707 -85 155 -103 188 -141 254 -7 13
-17 27 -21 30 -5 3 -7 8 -6 10 2 2 -4 15 -13 29 -8 14 -53 88 -99 165 -45 77
-106 176 -134 221 -29 44 -54 84 -56 90 -12 28 -395 592 -441 649 -4 5 -63 84
-130 175 -157 213 -393 509 -582 730 -147 171 -179 207 -301 340 -34 36 -88
94 -120 130 -166 180 -619 623 -830 810 -33 30 -62 56 -65 59 -16 19 -297 257
-450 381 -69 56 -134 109 -145 119 -11 9 -59 45 -105 81 -47 35 -89 68 -95 72
-5 5 -41 32 -80 60 -38 29 -74 56 -80 61 -56 46 -444 317 -455 317 -4 0 -10 3
-12 8 -6 13 -403 272 -418 272 -6 0 -10 5 -10 10 0 6 -5 10 -11 10 -6 0 -34
15 -62 34 -56 37 -272 166 -352 211 -99 55 -251 139 -320 177 -123 67 -576
294 -695 348 -63 29 -147 67 -187 86 -39 19 -74 34 -77 34 -2 0 -37 15 -78 33
-40 19 -143 62 -228 97 -85 34 -168 68 -185 76 -74 32 -447 168 -615 224 -102
34 -192 64 -200 68 -8 3 -19 6 -25 8 -5 1 -48 14 -95 29 -74 23 -256 78 -300
90 -106 30 -422 115 -441 119 -13 2 -62 14 -109 26 -47 12 -92 23 -100 25 -8
2 -35 8 -60 14 -25 5 -56 12 -70 15 -14 2 -56 12 -95 21 -38 9 -81 19 -95 21
-14 3 -54 11 -90 19 -36 7 -85 17 -110 20 -24 4 -47 8 -50 10 -3 2 -24 6 -46
9 -22 4 -51 9 -64 11 -14 3 -40 8 -59 11 -18 3 -43 8 -55 10 -11 2 -37 7 -56
10 -19 3 -46 7 -60 9 -45 7 -155 25 -180 29 -14 3 -47 7 -75 11 -27 3 -80 10
-118 15 -37 6 -89 12 -115 15 -26 3 -58 8 -72 10 -14 2 -52 7 -85 10 -33 3
-73 8 -90 10 -48 6 -124 14 -205 20 -41 3 -92 8 -114 11 -21 2 -71 6 -110 9
-39 2 -107 6 -151 9 -254 19 -544 28 -878 30 -164 0 -299 0 -300 -1z"/>
</g>
</svg>
